HIERARCHY
ROOT Hip
{
	OFFSET	0.0000	0.0000	0.0000
	CHANNELS 6 Xposition Yposition Zposition Xrotation Yrotation Zrotation
	JOINT LowerSpine
	{
		OFFSET	0.0000	8.3453	-5.1292
		CHANNELS 3 Xrotation Yrotation Zrotation
		JOINT MiddleSpine
		{
			OFFSET	10.8569	0.0000	0.0000
			CHANNELS 3 Xrotation Yrotation Zrotation
			JOINT Chest
			{
				OFFSET	15.2984	0.0000	0.0000
				CHANNELS 3 Xrotation Yrotation Zrotation
				JOINT Neck
				{
					OFFSET	25.6618	-0.5986	0.0000
					CHANNELS 3 Xrotation Yrotation Zrotation
					JOINT Head
					{
						OFFSET	8.8829	0.0000	0.0000
						CHANNELS 3 Xrotation Yrotation Zrotation
						End Site
						{
							OFFSET	19.7399	0.0000	0.0000
						}
					}
				}
				JOINT RClavicle
				{
					OFFSET	23.6878	0.0000	3.1584
					CHANNELS 3 Xrotation Yrotation Zrotation
					JOINT RShoulder
					{
						OFFSET	-15.5945	-3.9480	0.9870
						CHANNELS 3 Xrotation Yrotation Zrotation
						JOINT RForearm
						{
							OFFSET	-31.3370	0.0000	0.1974
							CHANNELS 3 Xrotation Yrotation Zrotation
							JOINT RHand
							{
								OFFSET	-26.4021	0.0000	0.0000
								CHANNELS 3 Xrotation Yrotation Zrotation
								End Site
								{
									OFFSET	-15.7919	-0.9870	0.0000
								}
							}
						}
					}
				}
				JOINT LClavicle
				{
					OFFSET	23.6878	0.0000	-3.1584
					CHANNELS 3 Xrotation Yrotation Zrotation
					JOINT LShoulder
					{
						OFFSET	-15.5945	-3.9480	-0.9870
						CHANNELS 3 Xrotation Yrotation Zrotation
						JOINT LForearm
						{
							OFFSET	-31.3370	0.0000	-0.1974
							CHANNELS 3 Xrotation Yrotation Zrotation
							JOINT LHand
							{
								OFFSET	-26.4021	0.0000	0.0000
								CHANNELS 3 Xrotation Yrotation Zrotation
								End Site
								{
									OFFSET	-15.7919	-0.9870	0.0000
								}
							}
						}
					}
				}
			}
		}
	}
	JOINT RThigh
	{
		OFFSET	-8.8829	0.4481	0.0000
		CHANNELS 3 Xrotation Yrotation Zrotation
		JOINT RShin
		{
			OFFSET	43.1316	0.0000	-0.4935
			CHANNELS 3 Xrotation Yrotation Zrotation
			JOINT RFoot
			{
				OFFSET	0.0000	-44.7256	-0.4047
				CHANNELS 3 Xrotation Yrotation Zrotation
				JOINT RToe
				{
					OFFSET	0.0000	-3.9332	12.1953
					CHANNELS 3 Xrotation Yrotation Zrotation
					End Site
					{
						OFFSET	6.7725	0.0000	0.0000
					}
				}
			}
		}
	}
	JOINT LThigh
	{
		OFFSET	8.8829	0.4481	0.0000
		CHANNELS 3 Xrotation Yrotation Zrotation
		JOINT LShin
		{
			OFFSET	43.1316	0.0000	0.4935
			CHANNELS 3 Xrotation Yrotation Zrotation
			JOINT LFoot
			{
				OFFSET	0.0000	-44.7256	0.4047
				CHANNELS 3 Xrotation Yrotation Zrotation
				JOINT LToe
				{
					OFFSET	0.0000	-3.9332	-12.1953
					CHANNELS 3 Xrotation Yrotation Zrotation
					End Site
					{
						OFFSET	6.7725	0.0000	0.0000
					}
				}
			}
		}
	}
}
MOTION
Frames:	13
Frame Time: 0.0169491000
	10.0574	92.8191	4.7041	-7.487601	-1.510596	-2.721936	-89.999990	-90.000000	0.000000	-0.024534	0.014539	-0.023445	-0.045622	0.036261	-0.078992	0.000000	0.000000	0.000000	0.000000	0.000000	0.000000	89.996410	-0.098891	-88.670860	-71.661370	0.176955	62.023930	29.367370	78.265010	-30.145980	0.000000	0.000000	0.000000	-90.001460	0.436004	-84.141240	-18.550740	-39.828590	66.354120	-1.540840	-16.979670	-6.130670	0.000000	0.000000	0.000000	-82.315240	85.595310	5.666441	89.982460	1.953433	89.998370	-4.072270	-0.450418	-0.180488	176.432100	90.000000	0.000000	-103.382400	87.962150	27.166710	-89.991360	-0.966473	89.999050	7.691610	-0.082464	0.065271	180.000000	-90.000000	0.000000
	10.0042	92.8234	4.7131	-7.473632	-1.575446	-2.795914	-89.999990	-90.000000	0.000000	-0.019553	0.009331	-0.012018	-0.059889	-0.005154	-0.028111	0.000000	0.000000	0.000000	0.000000	0.000000	0.000000	89.996220	-0.106906	-88.563210	-72.495250	-1.268785	62.878160	29.100280	78.170600	-29.884500	0.000000	0.000000	0.000000	-90.001700	0.440333	-84.083000	-18.578590	-39.613130	66.281300	-1.536872	-16.944330	-6.129512	0.000000	0.000000	0.000000	-82.628740	85.478150	5.905425	89.981270	2.085702	89.998280	-4.008162	-0.702930	-0.294250	176.229100	90.000000	0.000000	-102.596400	87.865940	26.423730	-89.992010	-0.894245	89.999110	7.727812	-0.010867	0.033345	180.000000	-90.000000	0.000000
	9.9779	92.8181	4.6769	-7.395335	-1.773150	-2.810515	-89.999990	-90.000000	0.000000	-0.013014	-0.007181	-0.000014	-0.063510	-0.031466	-0.002300	0.000000	0.000000	0.000000	0.000000	0.000000	0.000000	89.996050	-0.114717	-88.458310	-73.184940	-2.224779	63.561550	28.827270	78.072300	-29.617340	0.000000	0.000000	0.000000	-90.002150	0.448209	-83.977060	-18.487220	-39.586670	66.257160	-1.485685	-16.487280	-6.114789	0.000000	0.000000	0.000000	-83.054600	85.499920	6.058570	89.978370	2.408955	89.998060	-4.223542	-0.530135	-0.220438	176.398100	90.000000	0.000000	-103.084000	87.887990	26.875600	-89.992760	-0.811218	89.999200	7.762208	0.215945	-0.075167	180.000000	-90.000000	0.000000
	10.0004	92.8183	4.6638	-7.344964	-1.886737	-2.799265	-89.999990	-90.000000	0.000000	-0.010168	-0.029227	0.010379	-0.075298	-0.062561	0.032083	0.000000	0.000000	0.000000	0.000000	0.000000	0.000000	89.995960	-0.119098	-88.399480	-73.029670	-1.745047	63.501280	28.695090	78.024010	-29.488030	0.000000	0.000000	0.000000	-90.002730	0.458131	-83.843550	-18.280790	-39.735140	66.302150	-1.405805	-15.769670	-6.092597	0.000000	0.000000	0.000000	-83.420810	85.569230	6.320595	89.977730	2.481158	89.998020	-4.244853	-0.291125	-0.101645	176.435300	90.000000	0.000000	-103.947000	87.950560	27.745540	-89.993740	-0.702018	89.999290	7.706770	0.377994	-0.159814	180.000500	-90.000000	0.000000
	10.0595	92.8316	4.7156	-7.356971	-1.880709	-2.778894	-89.999990	-90.000000	0.000000	-0.025221	-0.033039	0.022430	-0.105366	-0.084651	0.070738	0.000000	0.000000	0.000000	0.000000	0.000000	0.000000	89.995990	-0.117864	-88.416040	-72.424210	-0.716388	63.185650	28.783700	78.056430	-29.574710	0.000000	0.000000	0.000000	-90.003370	0.468579	-83.702990	-18.195250	-39.700310	66.313750	-1.375021	-15.491740	-6.084303	0.000000	0.000000	0.000000	-83.628720	85.631220	6.799161	89.981760	2.032098	89.998320	-3.904355	-0.152741	-0.032413	176.221000	90.000000	0.000000	-104.602700	88.009750	28.482040	-89.994450	-0.623272	89.999370	7.538850	0.401443	-0.183898	180.001900	-90.000000	0.000000
	10.1048	92.8459	4.7681	-7.342546	-1.865930	-2.758525	-89.999990	-90.000000	0.000000	-0.052923	-0.030543	0.040276	-0.157383	-0.087283	0.109204	0.000000	0.000000	0.000000	0.000000	0.000000	0.000000	89.996130	-0.111056	-88.507500	-71.995250	-0.138679	63.129980	29.073480	78.161050	-29.858280	0.000000	0.000000	0.000000	-90.004000	0.478538	-83.568910	-18.341410	-39.328770	66.184350	-1.414996	-15.852500	-6.095102	0.000000	0.000000	0.000000	-83.865300	85.675600	7.233781	89.984760	1.696305	89.998570	-3.741773	0.028453	0.034435	176.216700	90.000000	0.000000	-104.935400	88.041570	28.808830	-89.994100	-0.660905	89.999340	7.405140	0.338400	-0.159461	180.002800	-90.000000	0.000000
	10.1189	92.8498	4.7727	-7.263165	-1.798251	-2.755735	-89.999990	-90.000000	0.000000	-0.068187	-0.024360	0.046111	-0.228059	-0.067367	0.141777	0.000000	0.000000	0.000000	0.000000	0.000000	0.000000	89.996370	-0.100438	-88.650130	-71.713000	0.038828	63.104290	29.650760	78.363310	-30.423490	0.000000	0.000000	0.000000	-90.004610	0.487863	-83.443370	-18.543710	-38.874100	65.952740	-1.473862	-16.381400	-6.111443	0.000000	0.000000	0.000000	-84.208400	85.665920	7.379746	89.982410	1.959154	89.998370	-3.953356	0.077905	0.042814	176.356100	90.000000	0.000000	-104.774500	88.017270	28.546340	-89.993840	-0.690664	89.999310	7.426044	0.261015	-0.115762	180.001900	-90.000000	0.000000
	10.1271	92.8470	4.7670	-7.195560	-1.654231	-2.747360	-89.999990	-90.000000	0.000000	-0.091194	-0.012896	0.051215	-0.308347	-0.028295	0.161832	0.000000	0.000000	0.000000	0.000000	0.000000	0.000000	89.996700	-0.087984	-88.817500	-71.363910	0.193215	63.017090	30.440670	78.627490	-31.197530	0.000000	0.000000	0.000000	-90.005240	0.497126	-83.318700	-18.677050	-38.520990	65.714980	-1.515849	-16.756880	-6.123416	0.000000	0.000000	0.000000	-84.585520	85.635340	7.479325	89.978620	2.382894	89.998090	-4.169964	-0.123027	-0.042948	176.316300	90.000000	0.000000	-104.661200	87.987300	28.359320	-89.994060	-0.666511	89.999340	7.518736	0.215956	-0.087533	180.000500	-90.000000	0.000000
	10.1343	92.8471	4.7664	-7.153355	-1.479979	-2.723838	-89.999990	-90.000000	0.000000	-0.113980	0.000612	0.052931	-0.384735	0.021609	0.165948	0.000000	0.000000	0.000000	0.000000	0.000000	0.000000	89.997080	-0.074588	-88.997520	-70.838090	0.651035	62.898240	31.538480	78.972250	-32.274440	0.000000	0.000000	0.000000	-90.005940	0.507152	-83.183680	-18.758150	-38.245460	65.450670	-1.544496	-17.012220	-6.131736	0.000000	0.000000	0.000000	-84.964760	85.609470	7.723740	89.976750	2.591195	89.997950	-4.271067	-0.398258	-0.157291	176.300200	90.000000	0.000000	-104.750500	87.973190	28.366660	-89.993600	-0.717919	89.999290	7.527985	0.117628	-0.041950	180.000400	-90.000000	0.000000
	10.1497	92.8525	4.7430	-7.066263	-1.270639	-2.697777	-89.999990	-90.000000	0.000000	-0.142855	0.023500	0.047082	-0.440586	0.071133	0.156354	0.000000	0.000000	0.000000	0.000000	0.000000	0.000000	89.997540	-0.059957	-89.194100	-70.125020	1.419995	62.603710	33.438650	79.514130	-34.141250	0.000000	0.000000	0.000000	-90.006780	0.518601	-83.029480	-18.768960	-38.072310	65.151410	-1.557841	-17.130930	-6.135654	0.000000	0.000000	0.000000	-85.293460	85.581700	7.943095	89.976230	2.649226	89.997910	-4.318704	-0.617690	-0.251836	176.378400	90.000000	0.000000	-104.869500	87.960790	28.261780	-89.991680	-0.931139	89.999100	7.498302	-0.037837	0.029191	180.001200	-90.000000	0.000000
	10.1833	92.8586	4.7169	-6.968007	-1.025245	-2.687008	-89.999990	-90.000000	0.000000	-0.146652	0.030615	0.044032	-0.459904	0.108807	0.139735	0.000000	0.000000	0.000000	0.000000	0.000000	0.000000	89.998130	-0.043527	-89.414920	-69.341740	2.070115	62.326430	35.793540	80.102690	-36.459020	0.000000	0.000000	0.000000	-90.007770	0.531860	-82.850910	-18.672890	-38.057840	64.894420	-1.540028	-16.972440	-6.130430	0.000000	0.000000	0.000000	-85.528180	85.544330	8.118383	89.976910	2.575608	89.997960	-4.227042	-0.785180	-0.320724	176.262100	90.000000	0.000000	-104.891100	87.936470	27.979070	-89.988660	-1.268901	89.998810	7.577934	-0.203877	0.108999	180.001700	-90.000000	0.000000
	10.2082	92.8595	4.7221	-6.928976	-0.861461	-2.710274	-89.999990	-90.000000	0.000000	-0.135483	0.045779	0.033878	-0.434083	0.127118	0.123690	0.000000	0.000000	0.000000	0.000000	0.000000	0.000000	89.998840	-0.025542	-89.656660	-68.698590	2.303663	62.479870	37.071390	80.389060	-37.718410	0.000000	0.000000	0.000000	-90.009000	0.547239	-82.643710	-18.612810	-37.976550	64.651440	-1.526722	-16.853870	-6.126559	0.000000	0.000000	0.000000	-85.785400	85.494690	8.415867	89.978170	2.433623	89.998040	-4.074533	-0.836495	-0.332417	176.058100	90.000000	0.000000	-104.584400	87.881150	27.514050	-89.986600	-1.497208	89.998630	7.698351	-0.398645	0.205395	180.001200	-90.000000	0.000000
	10.2120	92.8543	4.7307	-6.902894	-0.915571	-2.734107	-89.999990	-90.000000	0.000000	-0.121689	0.044243	0.031733	-0.367876	0.127236	0.113625	0.000000	0.000000	0.000000	0.000000	0.000000	0.000000	89.999630	-0.007548	-89.898570	-68.380900	2.305155	63.003640	36.869380	80.345220	-37.519240	0.000000	0.000000	0.000000	-90.010480	0.565155	-82.402160	-18.741430	-37.590890	64.336350	-1.564602	-17.191020	-6.137648	0.000000	0.000000	0.000000	-86.197020	85.487250	8.799984	89.978240	2.425452	89.998050	-4.071381	-0.686482	-0.263149	176.056000	90.000000	0.000000	-104.541200	87.852290	27.441420	-89.986430	-1.517163	89.998610	7.731908	-0.482438	0.248835	180.000400	-90.000000	0.000000
